<?xml version="1.0" encoding="utf-8"?>
<!-- Generator: Adobe Illustrator 25.0.0, SVG Export Plug-In . SVG Version: 6.00 Build 0)  -->
<svg version="1.1" id="Layer_1" xmlns="http://www.w3.org/2000/svg" xmlns:xlink="http://www.w3.org/1999/xlink" x="0px" y="0px"
	 viewBox="0 0 358.3 174" style="enable-background:new 0 0 358.3 174;" xml:space="preserve">
<style type="text/css">
	.st0{fill:#A09F9F;}
</style>
<g>
	<path class="st0" d="M108,48.2c1.8,0,3.6,0,5.4,0c0,6.4,0.1,12.9,0,19.3c0,4.1-1.8,8.6-5.6,10.6c-4.3,2.2-9.7,2.2-14-0.2
		c-3.6-2.1-5.3-6.4-5.2-10.4c0-6.4,0-12.8,0-19.3h5.2c0,5.6,0,11.1,0,16.7c0.1,2.6,0.1,5.3,1.6,7.5c2.1,2.8,6.4,3.1,9.3,1.5
		c2.6-1.6,3.2-4.9,3.2-7.7C108.1,60.2,108,54.2,108,48.2 M131.4,48.3c4.5-1.3,9.6-0.5,13.6,1.9c0,1.9,0,3.8,0,5.6
		c-3.4-2.5-7.9-4.4-12.1-2.9c-1.8,0.5-3,2.7-2.1,4.5c0.7,1.7,2.7,2.2,4.2,2.8c3.3,1.3,7.2,2,9.6,4.9c3.2,3.8,2.4,10.7-2.3,13
		c-5.2,2.7-11.8,1.8-16.8-1c0-1.9,0-3.9,0-5.8c3.8,2.9,9,4.6,13.6,2.9c2.5-0.9,2.8-4.8,0.6-6.2c-3.5-2.1-7.9-2.6-11.3-5
		c-3-2.2-3.9-6.4-2.6-9.8C126.7,50.8,128.9,49.1,131.4,48.3 M179.9,47.8c7.1,6.5,14,13.3,21,20V48.2h5.2v31.5
		C199,73,192.1,66,184.9,59.3v19.8c-1.7,0-3.4,0-5.1,0C179.9,68.6,179.8,58.2,179.9,47.8 M219.9,48.2c6.3,0,12.6,0,18.9,0
		c0,1.6,0,3.2,0,4.8c-4.5,0-9,0-13.6,0v7.3c4,0,8.1,0,12.1,0V65c-4,0-8.1,0-12.1,0c0,3.1,0,6.2,0,9.3c4.5,0,9,0,13.5,0
		c0,1.6,0,3.3,0,4.9h-18.9C219.9,68.9,219.9,58.6,219.9,48.2 M254.1,49.4c4.9-2.8,11.2-2,16,0.6c0.1,1.9,0.1,3.8,0.1,5.8
		c-3.5-2.6-8.2-4.5-12.5-2.8c-2.4,0.9-2.7,4.5-0.5,5.8c3.6,2.1,8,2.5,11.4,5c4.5,3.4,4.2,11.5-1,14.1c-5.2,2.7-11.8,1.9-16.8-1
		c0-1.9,0-3.8,0-5.7c3.6,2.6,8.3,4.4,12.8,3.2c1.7-0.4,3.2-1.9,2.9-3.7c0-1.4-0.9-2.6-2.2-3.2c-3.5-1.8-7.7-2.3-10.9-4.8
		C249.2,59.5,249.5,52.1,254.1,49.4 M285.5,49.5c4.9-2.9,11.2-2.1,16,0.5c0,1.9,0,3.8,0,5.7c-3.5-2.6-8.2-4.4-12.4-2.7
		c-2.4,0.9-2.6,4.5-0.5,5.8c3.7,2.1,8.3,2.5,11.6,5.2c2.9,2.3,3.5,6.5,2.4,9.9c-1.1,3-4.1,4.7-7,5.3c-4.5,0.9-9.3,0.1-13.4-2.2
		c-0.1-1.9-0.1-3.9-0.1-5.8c3.8,2.8,9,4.6,13.6,2.9c2.5-0.9,2.9-4.8,0.6-6.2c-3.6-2.3-8.2-2.6-11.7-5.3
		C280.8,59.5,281,52.3,285.5,49.5 M55.1,48.2c5.5,0.3,11.2-0.8,16.5,0.9c5.9,1.9,6.7,11.1,1.4,14.1c4.9,2,6,9,2.7,12.8
		c-2.1,2.5-5.4,3.1-8.5,3.2c-4,0.1-8,0-12,0L55.1,48.2 M60.4,53c0,2.7,0,5.4,0,8.2c2.8-0.1,5.7,0.4,8.5-0.4c3.3-1,3.3-6.4,0-7.4
		C66.1,52.6,63.2,53.1,60.4,53 M60.4,65.7c0,2.9,0,5.9,0,8.8c3.2-0.2,6.7,0.6,9.7-0.7c3-1.5,2.8-6.5-0.4-7.6
		C66.7,65.2,63.4,65.9,60.4,65.7 M159.8,48.2h5.2v31h-5.2V48.2z M138.4,96.4c4.9-3.1,11.4-2.2,16.2,0.6c0,1.9,0,3.7,0,5.6
		C151,100,146.2,98,142,100c-2.1,1-2.4,4.1-0.5,5.5c3.9,2.5,9,2.6,12.3,5.9c2.2,2.1,2.6,5.5,2,8.3c-0.7,2.9-3.2,5-5.9,5.8
		c-4.8,1.5-10.3,0.7-14.6-1.8c0-1.9,0-3.8,0-5.7c3.7,2.8,8.7,4.6,13.2,3c2.7-0.7,3.3-4.9,0.8-6.3c-3.7-2.3-8.3-2.6-11.7-5.4
		C133.8,106,134.1,99.1,138.4,96.4 M75.9,95.1h5.2c0,10.2,0,20.5,0,30.7h-5.2V95.1z M95.9,94.4c7,6.6,13.9,13.3,20.9,19.9
		c0-6.4,0-12.9,0-19.3c1.7,0,3.5,0,5.2,0c0,10.5,0,20.9,0,31.4c-7.1-6.7-14-13.6-21.1-20.4c0,6.6,0,13.2,0,19.8h-5.1
		C95.9,115.3,95.9,104.8,95.9,94.4L95.9,94.4z M169.4,95.1h5.2v30.7h-5.2V95.1z M189.7,95.1c4.2,0,8.4,0,12.6,0
		c4.8-0.1,9.7,2.4,12.1,6.7c2.5,4.5,2.7,10.1,1.1,14.9c-1.7,5.1-6.7,8.7-12,9c-4.6,0.2-9.2,0-13.9,0.1V95.1z M195.1,99.8V121
		c3.7-0.1,7.8,0.6,11.3-1.2c3.3-1.7,4.9-5.6,4.8-9.3c0.1-3.6-1.1-7.7-4.5-9.6C203.1,99.1,198.9,100.1,195.1,99.8 M227.2,95.1
		c6.3,0,12.5,0,18.8,0c0,1.6,0,3.2,0,4.7c-4.5,0-9,0-13.5,0v7.2c4,0,8.1,0,12.1,0v4.6c-4,0-8.1,0-12.1,0v9.5c4.5,0,9,0,13.6,0v4.7
		h-18.8V95.1z M261.4,95.1c4.2,0,8.5,0,12.7,0c3.6,0.1,7.4,2.2,8.4,5.8c0.9,3.2,0.7,6.9-1.3,9.6c-1.2,1.6-3.3,2.2-5.1,2.7
		c3.7,4.1,7.3,8.3,10.9,12.5c-2.1,0-4.1,0-6.2,0c-3.5-4.2-7.1-8.3-10.6-12.4c-1.2,0-2.3,0-3.5,0c0,4.1,0,8.3,0,12.4
		c-1.8,0-3.6,0-5.4,0L261.4,95.1 M266.8,99.7c0,3,0,6.1,0,9.1c2.8-0.2,5.7,0.4,8.4-0.4c3.3-1.3,3.4-6.7,0.1-8.1
		C272.6,99.2,269.6,99.8,266.8,99.7"/>
</g>
</svg>
