<?xml version="1.0" encoding="utf-8"?>
<!-- Generator: Adobe Illustrator 21.0.2, SVG Export Plug-In . SVG Version: 6.00 Build 0)  -->
<svg version="1.1" id="Layer_1" xmlns="http://www.w3.org/2000/svg" xmlns:xlink="http://www.w3.org/1999/xlink" x="0px" y="0px"
	 viewBox="0 0 327 174" style="enable-background:new 0 0 327 174;" xml:space="preserve">
<style type="text/css">
	.st0{fill:#FFFFFF;}
	.st1{fill-rule:evenodd;clip-rule:evenodd;fill:#A09F9F;}
	.st2{fill-rule:evenodd;clip-rule:evenodd;fill:#FFFFFF;}
	.st3{fill:#A09F9F;}
	.st4{fill:none;}
</style>
<g>
	<path class="st3" d="M44.6,66c6.7,0,13.4-0.1,20.1,0.1c5.2,0.1,9.2,3.6,10.1,8.4c1,5.4-1.8,10-6.2,11.3c-0.1,0-0.2,0.1-0.3,0.2
		c4.1,1.2,6.6,3.9,7.3,8c1.1,6.8-2.6,12.3-9.6,13.1c-1.6,0.2-3.2,0.2-4.7,0.2c-5.5,0-11.1,0-16.6,0C44.6,93.5,44.6,79.7,44.6,66z
		 M53.5,99.4c0.1,0,0.2,0.1,0.3,0.1c2.8,0,5.6,0.1,8.3,0c2.9-0.1,4.6-1.9,4.6-4.5c0.1-2.6-1.5-4.5-4.3-4.8c-1.8-0.2-3.6-0.1-5.4-0.1
		c-1.2,0-2.4,0-3.6,0C53.5,93.2,53.5,96.2,53.5,99.4z M53.4,82.3c2.6,0,5,0,7.5,0c0.5,0,1,0,1.4-0.1c1.7-0.3,3-1.2,3.5-3
		c0.7-2.9-1.1-5.4-4.1-5.5c-1.4-0.1-2.8,0-4.2,0c-1.3,0-2.7,0-4.1,0c0,0.3-0.1,0.5-0.1,0.7C53.4,76.9,53.4,79.6,53.4,82.3z"/>
	<path class="st3" d="M204.3,108.1c-1-0.2-2.1-0.3-3.1-0.6c-8.1-1.9-12.2-8.9-11.5-16.6c0.6-6.4,3.8-11.2,10-13.3
		c8.6-3,18.7,1.1,20.1,12.6c0.2,1.5,0.2,3.1,0.3,4.7c-3.9,0-7.5,0-11.2,0c-3.7,0-7.3,0-11.1,0c0.5,2.8,1.9,4.8,4.4,5.9
		c4,1.7,7.8,0.9,11.4-1.4c0.2-0.1,0.4-0.3,0.6-0.4c0,0,0.1,0,0.2,0c1.1,1.6,2.2,3.3,3.5,5.1c-1.2,0.7-2.2,1.5-3.4,2.1
		c-2.1,1.1-4.4,1.6-6.8,1.8c-0.3,0-0.5,0.1-0.8,0.2C206,108.1,205.1,108.1,204.3,108.1z M212.4,89.4c0.2-3.7-3.4-6.5-7.9-6.4
		c-3.7,0.1-7,3.3-6.6,6.4C202.7,89.4,207.5,89.4,212.4,89.4z"/>
	<path class="st3" d="M236.3,108.1c-1.3-0.3-2.6-0.4-3.9-0.8c-6-1.7-10.2-6.8-10.7-13c-0.5-5.9,1.2-10.9,5.9-14.6
		c7.2-5.6,21.2-4.3,24,9c0.2,1,0.3,1.9,0.4,2.9c0.1,1,0,2.1,0,3.3c-3.7,0-7.4,0-11.1,0c-3.7,0-7.3,0-11.1,0c0.2,1.7,0.8,3,1.9,4.1
		c2.5,2.5,5.5,3,8.8,2.4c2.1-0.4,4.1-1.2,5.8-2.7c1.2,1.7,2.3,3.4,3.6,5.2c-0.9,0.6-1.8,1.3-2.7,1.8c-2.3,1.3-4.8,1.9-7.4,2.2
		c-0.3,0-0.6,0.1-0.9,0.2C238.1,108.1,237.2,108.1,236.3,108.1z M229.9,89.4c4.8,0,9.7,0,14.5,0c0.2-3.6-3.3-6.5-7.6-6.4
		C232.9,83.1,229.6,86.1,229.9,89.4z"/>
	<path class="st3" d="M89.5,108.1c-0.9-0.2-1.9-0.4-2.8-0.6c-5.8-1.4-9.3-5.8-9.3-11.8c0-5.8,0-11.5,0-17.3c0-0.3,0-0.6,0-1
		c2.6,0,5.2,0,7.9,0c0,0.4,0,0.7,0,1.1c0,5.4,0,10.9,0,16.3c0,2.5,0.7,4.6,3.1,5.6c2.5,1.2,5.1,1.1,7.5-0.5c1.7-1.2,2.2-3.1,2.2-5.1
		c0-5.4,0-10.8,0-16.2c0-0.4,0-0.7,0-1.2c2.6,0,5.1,0,7.8,0c0,0.3,0,0.7,0,1.1c0,5.7,0,11.4,0,17.1c0,6.9-4.3,11.6-11.1,12.3
		c-0.3,0-0.7,0.1-1,0.2C92.3,108.1,90.9,108.1,89.5,108.1z"/>
	<path class="st3" d="M163.9,107.2c0-13.8,0-27.5,0-41.2c9.5,0,19,0,28.7,0c0,1.4,0,2.7,0,4c0,0.9-0.1,1.8,0,2.7
		c0.1,0.9-0.3,1-1.1,1c-5.7,0-11.3,0-17,0c-0.6,0-1.1,0-1.8,0c0,2.9,0,5.7,0,8.7c0.3,0,0.7,0,1.1,0c4.3,0,8.5,0,12.8,0
		c0.9,0,1.1,0.3,1,1.1c-0.1,2.2,0,4.3,0,6.6c-5,0-9.9,0-15,0c0,5.8,0,11.4,0,17.2C169.8,107.2,166.9,107.2,163.9,107.2z"/>
	<path class="st3" d="M254,107.2c0-0.4,0-0.7,0-1.1c0-9.2,0-18.4,0-27.7c0-1.2,0-1.2,1.3-1.2c4.3,0,8.7-0.1,13,0.2
		c6.1,0.5,10.9,3.2,13.2,9.3c2.3,6.2,0.5,13.2-4.1,17c-2.8,2.3-6,3.4-9.5,3.5c-4.4,0.2-8.9,0.1-13.4,0.1
		C254.3,107.3,254.2,107.2,254,107.2z M261.5,100.9c1.5,0,2.9,0,4.3,0c5.1,0,8.3-2.9,8.9-7.9c0.4-3.6-1.6-7.3-4.7-8.5
		c-2.8-1.1-5.6-0.5-8.5-0.7C261.5,89.5,261.5,95.1,261.5,100.9z"/>
	<path class="st3" d="M121.7,84.2c-4.6,0-8.9,0-13.4,0c0-2.3,0-4.5,0-6.8c8,0,16,0,24.1,0c0,1.3-0.1,2.6,0,3.8c0.1,1.2-0.3,2.1-1,3
		c-4,5-8,10-11.9,15.1c-0.2,0.3-0.4,0.5-0.7,1c4.7,0,9.2,0,13.8,0c0,2.4,0,4.6,0,6.9c-8.1,0-16.2,0-24.4,0c0-1.9,0-3.8,0-5.6
		c0-0.3,0.3-0.7,0.6-0.9c4.1-5.2,8.2-10.4,12.2-15.6C121.3,84.8,121.4,84.6,121.7,84.2z"/>
	<path class="st3" d="M134.8,84.2c0-2.1,0-4.1,0-6c0-0.2,0-0.4,0.1-0.7c8,0,16,0,24.1,0c0,1.8,0,3.6,0,5.4c0,0.3-0.3,0.6-0.5,0.8
		c-4.1,5.3-8.3,10.5-12.4,15.8c-0.2,0.3-0.4,0.5-0.7,1c0.5,0,0.9,0,1.2,0c3.9,0,7.8,0,11.8,0c0.7,0,1,0.2,1,0.9c-0.1,2,0,3.9,0,5.9
		c-8.2,0-16.2,0-24.4,0c0-1.9,0-3.9,0-5.8c0-0.2,0.3-0.5,0.4-0.7c4-5.1,8-10.1,11.9-15.2c0.3-0.4,0.6-0.8,1-1.3
		C143.7,84.2,139.3,84.2,134.8,84.2z"/>
</g>
</svg>
