<?xml version="1.0" encoding="utf-8"?>
<!-- Generator: Adobe Illustrator 25.0.0, SVG Export Plug-In . SVG Version: 6.00 Build 0)  -->
<svg version="1.1" id="Layer_1" xmlns="http://www.w3.org/2000/svg" xmlns:xlink="http://www.w3.org/1999/xlink" x="0px" y="0px"
	 viewBox="0 0 324 174" style="enable-background:new 0 0 324 174;" xml:space="preserve">
<style type="text/css">
	.st0{fill:#A09F9F;}
</style>
<g id="oGPc43.tif">
	<g>
		<path class="st0" d="M44.3,88.9c0-0.1,0-0.2,0-0.2c0-1.9,0.4-3.8,1-5.7c0.7-2.1,1.8-3.9,3.4-5.5c1.8-1.7,3.9-2.8,6.4-3.1
			c2.1-0.3,4.1,0,6,0.8c2.5,1,4.2,2.8,5.2,5.3c0.7,1.7,1,3.4,1,5.2c0,0.3,0,0.6,0.1,0.9c-5,0-10,0-15.1,0c0.1,0.6,0.2,1.2,0.3,1.7
			c0.3,1.4,0.8,2.7,1.7,3.9c1.3,1.8,3,2.9,5.3,3.2c1.4,0.2,2.9,0.1,4.2-0.4c1.2-0.4,2.1-1.1,2.8-2.1c0.2-0.3,0.4-0.3,0.7-0.1
			c-0.1,0.6-0.3,1.3-0.5,1.9c-0.6,2.1-1.6,4-3.1,5.5c-1.7,1.7-3.8,2.6-6.2,2.9c-2.7,0.3-5.2-0.3-7.5-1.8c-1.5-1-2.8-2.3-3.7-3.9
			c-1-1.8-1.6-3.7-1.9-5.7c-0.1-0.6-0.1-1.2-0.1-1.8c0-0.1,0-0.1,0-0.2C44.3,89.6,44.3,89.3,44.3,88.9z M58.6,85c0-0.1,0-0.1,0-0.2
			c0-1.6,0-3.1-0.3-4.7c-0.1-1-0.4-2-0.9-2.9c-0.8-1.3-2.5-1.6-3.6-0.5c-0.7,0.7-1,1.5-1.3,2.3c-0.5,1.8-0.5,3.7-0.5,5.6
			c0,0.2,0.1,0.3,0.3,0.3c1.8,0,3.6,0,5.3,0C58.1,85,58.3,85,58.6,85z"/>
		<path class="st0" d="M185,64.5c0,0.2,0,0.3,0,0.4c0,11.2,0,22.4,0,33.6c0,1,0.1,1.9,0.8,2.7c0.4,0.5,1,0.8,1.6,1.1
			c0.1,0,0.2,0.2,0.2,0.2c0,0,0,0.1-0.1,0.1c-4.1,0-8.3,0-12.5,0c0-1.5,0-2.9,0-4.4c0,0,0,0-0.1,0c-0.1,0.2-0.1,0.3-0.2,0.5
			c-0.7,1.7-1.8,3.1-3.5,3.9c-0.8,0.4-1.7,0.7-2.7,0.8c-1.4,0.1-2.8,0-4.2-0.6c-1.6-0.7-2.8-1.9-3.7-3.4c-1.2-1.9-1.8-4-2.1-6.3
			c-0.2-1.5-0.2-3.1-0.2-4.6c0.2-2.7,0.8-5.3,2.2-7.7c1.5-2.6,3.5-4.5,6.3-5.6c1.1-0.4,2.2-0.7,3.4-0.7c1-0.1,2,0,2.9,0.2
			c0.6,0.2,1.1,0.4,1.7,0.7c0,0,0-0.1,0-0.2c0-0.9,0-1.9,0-2.8c0-1.7-1.1-2.9-2.8-3.2c-0.3-0.1-0.7-0.1-1.1-0.1
			c-0.1-0.2,0-0.2,0.2-0.3c2-0.6,4-1.2,6-1.8c2.5-0.8,5-1.5,7.5-2.3C184.9,64.5,185,64.5,185,64.5z M175.1,86.9c0-3.3,0-6.6,0-9.9
			c0-0.3-0.2-0.5-0.4-0.6c-0.9-0.4-1.7-0.3-2.5,0.3c-1,0.7-1.5,1.7-1.8,2.8c-0.6,1.8-0.9,3.6-1,5.5c-0.1,1.3,0,2.5,0,3.8
			c0,1.8,0.3,3.6,0.7,5.3c0.3,1.2,0.8,2.3,1.6,3.3c0.7,0.8,1.8,1,2.7,0.5c0.5-0.3,0.8-0.7,0.8-1.3C175.1,93.4,175.1,90.1,175.1,86.9
			z"/>
		<path class="st0" d="M218.8,102.6c-4.1,0-8.3,0-12.5,0c0-1.4,0-2.8,0-4.2c-0.3,0.5-0.5,1-0.8,1.4c-0.9,1.4-2.2,2.4-3.8,3
			c-2,0.8-4.1,0.9-6.1,0.1c-1.4-0.5-2.6-1.5-3.5-2.7c-1.2-1.6-1.8-3.5-2.1-5.5c-0.3-1.6-0.3-3.2-0.2-4.8c0.2-3.5,1.1-6.8,3.3-9.6
			c1.6-2.1,3.6-3.6,6.1-4.6c2-0.8,4-1.2,6.1-1.2c2.6-0.1,5.1,0.1,7.5,0.8c1.1,0.3,2.1,0.8,3.2,1.1c0.2,0.1,0.3,0.2,0.3,0.4
			c0,1.7,0,3.4,0,5.1c0,5.5,0,11.1,0,16.6c0,0.5,0.1,1.1,0.2,1.6c0.2,0.9,0.9,1.5,1.7,2c0.2,0.1,0.3,0.1,0.5,0.2
			C218.7,102.3,218.8,102.4,218.8,102.6C218.8,102.5,218.8,102.6,218.8,102.6z M206.3,86.8c0-3.4,0-6.9,0-10.3
			c0-0.3-0.1-0.4-0.3-0.4c-0.8-0.2-1.6-0.2-2.3,0.3c-0.9,0.6-1.5,1.5-1.9,2.4c-0.9,2-1.3,4.2-1.3,6.3c-0.1,1.5,0,3.1,0.1,4.6
			c0.1,1.6,0.4,3.2,0.8,4.8c0.3,1,0.7,1.9,1.3,2.7c0.8,0.9,1.7,1.2,2.7,0.8c0.6-0.2,0.8-0.5,0.8-1.1
			C206.3,93.5,206.3,90.2,206.3,86.8z"/>
		<path class="st0" d="M250.9,112.1c0.3-0.7,0.5-1.4,0.7-2.1c0.5-1.4,1-2.9,1.6-4.3c0.2-0.5,0.4-1,0.5-1.5c0.1-0.2,0.2-0.3,0.4-0.1
			c1.7,1.4,3.7,2.1,5.9,2.2c1.6,0.1,3.2,0,4.8-0.7c0.9-0.4,1.6-1,2.1-1.8c0-0.1,0.1-0.2,0-0.3c-1.1-2.6-2.3-5.2-3.4-7.7
			c-1.4-3.1-2.8-6.2-4.1-9.3c-0.7-1.6-1.4-3.2-2.2-4.8c-0.4-0.8-0.7-1.7-1.1-2.5c-0.6-1.3-1.4-2.5-2.5-3.3c-0.2-0.1-0.4-0.2-0.6-0.3
			c-0.1-0.1-0.1-0.2-0.3-0.3c5.4,0,10.7,0,16,0c0.1,0.2,0,0.2-0.2,0.3c-0.4,0.2-0.9,0.4-1.2,0.7c-0.5,0.3-0.7,0.9-0.7,1.5
			c0,1.1,0.2,2.1,0.6,3c1.2,3,2.3,5.9,3.4,8.9c0.2,0.5,0.4,0.9,0.6,1.5c0.3-0.8,0.6-1.6,1-2.4c0.7-1.8,1.5-3.6,2.2-5.4
			c0.4-1.1,0.9-2.2,1.3-3.3c0.2-0.6,0.3-1.3,0.2-2c-0.1-1.2-0.9-2.1-2-2.4c-0.4-0.1-0.4-0.1-0.4-0.4c2.6,0,5.2,0,7.8,0
			c0.1,0.2,0,0.2-0.2,0.3c-1,0.4-1.8,1.2-2.3,2.2c-0.8,1.4-1.3,3-1.9,4.5c-0.8,2-1.6,4.1-2.4,6.1c-0.8,2-1.5,4-2.3,5.9
			c-0.8,2-1.6,4.1-2.4,6.1c-0.7,1.7-1.3,3.4-2,5.1c-0.9,2.1-2,4.2-3.7,5.8c-1.4,1.4-3.1,2.2-5.1,2.5c-2.2,0.3-4.4,0-6.5-0.8
			C252,112.7,251.5,112.4,250.9,112.1z"/>
		<path class="st0" d="M146.3,86.7c-5,0-10,0-15.1,0c0.1,0.7,0.3,1.3,0.4,2c0.4,1.5,1,3,2,4.2c1.3,1.5,2.9,2.4,4.8,2.6
			c1.4,0.2,2.8,0.1,4.1-0.3c1.2-0.4,2.2-1.1,3-2.1c0.2-0.3,0.4-0.2,0.6-0.1c-0.3,1.8-0.8,3.4-1.7,5c-0.9,1.6-2.1,2.9-3.7,3.9
			c-1.6,1-3.4,1.5-5.4,1.6c-2,0-3.8-0.4-5.6-1.3c-2-1-3.5-2.5-4.6-4.4c-1.1-1.8-1.7-3.7-1.9-5.7c-0.1-0.9-0.2-1.8-0.2-2.6
			c0-2.1,0.3-4.2,1-6.2c0.7-2,1.8-3.9,3.3-5.4c1.8-1.8,4-2.9,6.5-3.2c2.5-0.3,4.9,0.1,7.1,1.4c1.9,1.1,3.2,2.7,4,4.7
			c0.7,1.7,1,3.4,1,5.2c0,0.1,0,0.3,0,0.4C146.3,86.3,146.3,86.5,146.3,86.7z M137.5,85c0-0.1,0-0.2,0-0.2c0-1.6,0-3.3-0.3-4.9
			c-0.1-0.8-0.4-1.6-0.7-2.3c-0.4-0.9-1-1.4-2.1-1.5c-1,0-1.7,0.4-2.1,1.2c-0.3,0.6-0.6,1.2-0.8,1.9c-0.5,1.7-0.5,3.5-0.5,5.3
			c0,0.2,0,0.4,0,0.5C133.2,85,135.3,85,137.5,85z"/>
		<path class="st0" d="M68.7,102.6c-0.1-0.2,0-0.3,0.2-0.4c0.7-0.3,1.3-0.8,1.7-1.4c0.4-0.7,0.6-1.4,0.6-2.2c0-8.8,0-17.6,0-26.4
			c0-1.4-0.5-2.6-1.7-3.3c-0.2-0.1-0.4-0.2-0.6-0.3c-0.1,0-0.2-0.1-0.2-0.2c0-0.1,0.1-0.2,0.2-0.2c0.8-0.3,1.6-0.5,2.4-0.7
			c1.3-0.4,2.7-0.8,4-1.2c1.9-0.6,3.8-1.2,5.8-1.8c0,0,0.1,0,0.1,0c0,0.1,0,0.3,0,0.4c0,11.1,0,22.1,0,33.2c0,0.7,0,1.4,0.3,2
			c0.4,1,1.1,1.6,2.1,2.1c0.1,0,0.2,0.2,0.2,0.3c0,0,0,0.1-0.1,0.1C78.7,102.6,73.7,102.6,68.7,102.6z"/>
		<path class="st0" d="M250.2,64.5c0,0.2,0,0.3,0,0.4c0,11.2,0,22.3,0,33.5c0,1.1,0.3,2.2,1.1,2.9c0.4,0.3,0.8,0.6,1.2,0.8
			c0.1,0.1,0.2,0.2,0.2,0.3c0,0,0,0-0.1,0.1c-5,0-10,0-15,0c-0.1-0.2,0-0.3,0.2-0.3c1.5-0.7,2.3-1.9,2.3-3.6c0-5.3,0-10.7,0-16
			c0-3.5,0-6.9,0-10.4c0-1.5-0.6-2.8-2.1-3.4c-0.1,0-0.2-0.1-0.3-0.1c-0.1,0-0.1-0.1-0.2-0.2c0-0.1,0.1-0.1,0.2-0.2
			c1.2-0.4,2.4-0.7,3.6-1.1c1.6-0.5,3.2-1,4.8-1.4c1.3-0.4,2.5-0.8,3.8-1.2C250.1,64.5,250.1,64.5,250.2,64.5z"/>
		<path class="st0" d="M121.4,95.5c0.2,0.1,0.3,0.1,0.5,0.2c-0.6,1.9-1.5,3.6-2.9,5c-1.3,1.3-2.7,2.1-4.5,2.5
			c-1.7,0.4-3.4,0.4-5.1-0.1c-2-0.6-3.3-2-4-3.9c-0.3-0.9-0.5-1.8-0.5-2.7c0-6.4,0-12.9,0-19.3c0-0.4,0-0.4-0.4-0.4
			c-0.7,0-1.4,0-2.1,0c-0.1-0.2,0-0.3,0.2-0.5c1.3-1.1,2.7-2.2,4-3.3c2.7-2.2,5.3-4.4,8-6.5c0.1-0.1,0.2-0.2,0.3-0.3
			c0,0.2,0,0.3,0,0.4c0,2.8,0,5.6,0,8.4c0,0.3,0.1,0.4,0.4,0.4c1.4,0,2.7,0,4.1,0c0.1,0,0.2,0,0.4,0c0,0.4,0,0.9,0,1.3
			c-1.6,0-3.2,0-4.8,0c0,0.1,0,0.3,0,0.4c0,5.7,0,11.4,0,17.1c0,0.8,0,1.6,0.4,2.4c0.6,1.3,1.6,1.8,3.1,1.6c1.4-0.2,2.3-1.1,2.9-2.3
			C121.3,95.7,121.4,95.6,121.4,95.5z"/>
		<path class="st0" d="M99.4,74.4c0,0.2,0,0.3,0,0.4c0,7.9,0,15.7,0,23.6c0,1.1,0.2,2,1,2.8c0.4,0.4,0.9,0.7,1.4,1
			c0.1,0.1,0.2,0.2,0.2,0.3c0,0,0,0-0.1,0.1c-5,0-10,0-15,0c-0.1-0.2,0.1-0.3,0.2-0.4c0.9-0.4,1.6-1.1,2-2c0.2-0.6,0.3-1.2,0.3-1.8
			c0-5.4,0-10.8,0-16.2c0-0.6-0.1-1.2-0.2-1.7c-0.3-1.2-1-1.8-2.1-2.2c-0.1,0-0.2-0.1-0.3-0.2c0.1-0.1,0.2-0.2,0.3-0.2
			c3.3-0.9,6.5-1.9,9.8-2.8C97.7,74.9,98.5,74.6,99.4,74.4z"/>
		<path class="st0" d="M233.3,74.4c0,0.1,0,0.3,0,0.4c0,7.9,0,15.8,0,23.6c0,1.7,0.7,3,2.3,3.7c0.2,0.1,0.3,0.1,0.2,0.4
			c-5,0-10,0-15.1,0c0.1-0.2,0.2-0.3,0.2-0.3c1.6-0.7,2.4-2,2.4-3.8c0-5.4,0-10.8,0-16.3c0-0.7-0.1-1.4-0.3-2.1
			c-0.3-0.9-1-1.5-1.9-1.8c0,0-0.1,0-0.1-0.1c-0.1-0.1-0.2-0.1-0.2-0.2c0-0.1,0.1-0.2,0.2-0.2c0.6-0.2,1.3-0.4,1.9-0.6
			c1.9-0.5,3.7-1,5.6-1.6c1.6-0.4,3.1-0.9,4.7-1.3C233.2,74.4,233.3,74.4,233.3,74.4z"/>
		<path class="st0" d="M233.3,68.8c0,2.9-2.3,5.2-5.2,5.2c-2.9,0-5.2-2.4-5.1-5.3c0.1-2.8,2.4-5.1,5.2-5.1
			C231.1,63.6,233.3,66.1,233.3,68.8z"/>
		<path class="st0" d="M94.1,63.6c2.8,0,5.2,2.3,5.2,5.1c0,2.9-2.3,5.2-5.2,5.2c-2.9,0-5.2-2.3-5.2-5.1C88.9,66,91.2,63.6,94.1,63.6
			z"/>
	</g>
</g>
</svg>
