<?xml version="1.0" encoding="utf-8"?>
<!-- Generator: Adobe Illustrator 25.0.0, SVG Export Plug-In . SVG Version: 6.00 Build 0)  -->
<svg version="1.1" id="Layer_1" xmlns="http://www.w3.org/2000/svg" xmlns:xlink="http://www.w3.org/1999/xlink" x="0px" y="0px"
	 viewBox="0 0 270 174" style="enable-background:new 0 0 270 174;" xml:space="preserve">
<style type="text/css">
	.st0{fill:#A09F9F;}
</style>
<g id="lA8eUl.tif">
	<g>
		<path class="st0" d="M224.7,77.7c-0.1,0-0.3,0-0.4,0c0-0.7,0-1.4-0.1-2.1c-0.1-2.1-0.4-4.2-1.1-6.3c-0.4-1.1-0.9-2.1-1.6-3
			c-1.3-1.6-2.9-2.4-4.9-2.5c-1-0.1-2,0-3,0c0,8.3,0,16.6,0,25c0.6-0.1,1.2-0.1,1.7-0.2c1.3-0.2,2.4-0.7,3.2-1.7
			c0.7-0.9,1-1.9,1.1-2.9c0.1-1.4,0.1-2.7,0.1-4.1c0-0.2,0-0.3,0-0.5c0.1,0,0.3,0,0.4,0c0,6.3,0,12.7,0,19c-0.1,0-0.2,0-0.4,0
			c0-0.1,0-0.3,0-0.4c0-1.3,0-2.6-0.1-3.9c-0.1-1.4-0.5-2.6-1.5-3.6c-0.9-0.8-2-1.1-3.1-1.3c-0.5-0.1-0.9-0.1-1.4-0.1
			c0,8.9,0,17.8,0,26.6c0,0,0,0,0,0c1.3,0,2.6,0.1,3.9-0.2c2.1-0.4,3.6-1.7,4.7-3.5c0.9-1.6,1.4-3.4,1.7-5.2c0.2-1.6,0.3-3.3,0.5-5
			c0.1,0,0.2,0,0.3,0c0,4.8,0,9.6,0,14.3c-6.9,0-13.7,0-20.6,0c0-0.1,0-0.3,0.1-0.4c1.1,0,2.3,0,3.4,0c0-17.4,0-34.7,0-52.1
			c-1.1,0-2.3,0-3.4,0c0-0.1,0-0.3,0-0.4c6.9,0,13.7,0,20.6,0C224.7,68.1,224.7,72.9,224.7,77.7z"/>
		<path class="st0" d="M47.9,116.2c0-0.1,0-0.2,0-0.4c1.2,0,2.3,0,3.5,0c0-17.4,0-34.7,0-52.1c-1.2,0-2.3,0-3.5,0c0-0.1,0-0.3,0-0.4
			c6.8,0,13.5,0,20.3,0c0,4.8,0,9.5,0,14.3c-0.1,0-0.2,0-0.5,0c0-0.8,0-1.6,0-2.3c-0.1-2-0.3-4.1-1-6c-0.5-1.6-1.3-3-2.6-4.1
			c-1.1-0.9-2.5-1.4-3.9-1.5c-0.9-0.1-1.9,0-2.9,0c0,8.3,0,16.6,0,25c3.1,0.1,5.3-1.2,5.9-4.2c0.1-0.7,0.2-1.4,0.2-2.1
			c0-1,0-2,0-3.1c0.1,0,0.3,0,0.4,0c0,6.3,0,12.7,0,19c-0.1,0-0.2,0-0.4,0c0-0.2,0-0.3,0-0.4c0-1.4,0-2.7-0.2-4.1
			c-0.2-1.7-0.9-3.1-2.4-3.9c-1.1-0.6-2.3-0.8-3.6-0.8c0,8.9,0,17.7,0,26.6c0,0,0,0,0,0c1.5,0,3,0.1,4.5-0.4c2-0.6,3.3-2,4.2-3.8
			c0.8-1.6,1.2-3.2,1.4-4.9c0.2-1.5,0.2-3.1,0.3-4.6c0-0.1,0-0.1,0-0.2c0.1,0,0.2,0,0.4,0c0,0.2,0,0.3,0,0.5c0,4.4,0,8.9,0,13.3
			c0,0.2,0,0.4,0,0.6C61.5,116.2,54.7,116.2,47.9,116.2z"/>
		<path class="st0" d="M154.1,116.2c0-0.1,0-0.2,0-0.4c1.1,0,2.2,0,3.3,0c0-17.4,0-34.7,0-52.1c-1.1,0-2.1,0-3.2,0
			c0-0.2,0-0.3,0-0.4c4.2,0,8.5,0,12.7,0c0,0.1,0,0.2,0,0.4c-1.1,0-2.1,0-3.2,0c0,17.4,0,34.7,0,52.1c2.2,0.1,4.3,0.1,6.2-1.2
			c1.5-1,2.4-2.4,3-4.1c0.7-1.8,1-3.6,1.1-5.5c0.1-1,0.1-2.1,0.2-3.2c0.1,0,0.2,0,0.4,0c0,0.2,0,0.3,0,0.5c0,4.5,0,8.9,0,13.4
			c0,0.2,0,0.3,0,0.5C167.7,116.2,160.9,116.2,154.1,116.2z"/>
		<path class="st0" d="M103.2,116.2c0-0.1,0-0.2,0-0.4c1.1,0,2.2,0,3.3,0c0-17.4,0-34.7,0-52.1c-1.1,0-2.2,0-3.2,0
			c0-0.2,0-0.3,0-0.4c4.2,0,8.5,0,12.7,0c0,0.1,0,0.2,0,0.4c-1.1,0-2.1,0-3.2,0c0,17.4,0,34.7,0,52c0,0,0,0,0.1,0
			c1.2-0.1,2.5,0,3.7-0.2c2-0.3,3.4-1.4,4.5-3.1c1.1-1.7,1.6-3.6,1.9-5.5c0.2-1.6,0.2-3.2,0.4-4.8c0-0.1,0-0.2,0-0.3
			c0.1,0,0.3,0,0.4,0c0,0.2,0,0.3,0,0.5c0,4.5,0,8.9,0,13.4c0,0.2,0,0.3,0,0.5C116.8,116.2,110,116.2,103.2,116.2z"/>
	</g>
</g>
</svg>
