<?xml version="1.0" encoding="utf-8"?>
<!-- Generator: Adobe Illustrator 21.0.2, SVG Export Plug-In . SVG Version: 6.00 Build 0)  -->
<svg version="1.1" id="Layer_1" xmlns="http://www.w3.org/2000/svg" xmlns:xlink="http://www.w3.org/1999/xlink" x="0px" y="0px"
	 viewBox="0 0 249 174" style="enable-background:new 0 0 249 174;" xml:space="preserve">
<style type="text/css">
	.st0{fill:#FFFFFF;}
	.st1{fill-rule:evenodd;clip-rule:evenodd;fill:#A09F9F;}
	.st2{fill-rule:evenodd;clip-rule:evenodd;fill:#FFFFFF;}
	.st3{fill:#A09F9F;}
	.st4{fill:none;}
</style>
<g>
	<path class="st1" d="M144.1,77.3c-2.9,0-5.2,0.6-7.4,1.9c0-6.6,0-12.6,0.2-14.6L123.1,67v1.2l1.4,0.2c1.9,0.4,2.5,1.4,2.9,3.9
		c0.4,4.9,0.2,31.3,0,35.6c3.7,0.8,7.6,1.4,11.5,1.4c10.9,0,17.5-6.8,17.5-17.5C156.4,83.5,151.1,77.3,144.1,77.3L144.1,77.3z
		 M139.3,107.2c-0.8,0-1.9,0-2.5-0.2c-0.2-2.9-0.4-15-0.2-25.8c1.2-0.4,2.1-0.6,3.1-0.6c4.5,0,7,5.4,7,11.9
		C146.8,100.8,143.7,107.2,139.3,107.2L139.3,107.2z"/>
	<path class="st1" d="M71.2,65.4H34.9v1.9l2.1,0.2c2.7,0.4,3.7,2.1,4.1,6c0.6,7.4,0.4,20.8,0,27.2c-0.4,3.9-1.4,5.8-4.1,6l-2.1,0.4
		v1.6h23.3V107l-2.5-0.4c-2.7-0.2-3.7-2.1-4.1-6c-0.2-2.7-0.4-7-0.4-12.4l4.9,0.2c3.1,0,4.5,2.5,5.2,6h1.9V79.8h-1.9
		c-0.6,3.5-2.1,6-5.2,6L51.2,86c0-7,0.2-13.6,0.4-17.5h7.2c5.6,0,8.4,3.5,10.5,9.7l2.1-0.6L71.2,65.4L71.2,65.4z"/>
	<path class="st1" d="M82.9,76.9c10.3,0,15.5,7,15.5,16.3c0,8.9-5.8,16.3-16.1,16.3c-10.3,0-15.5-7-15.5-16.3
		C66.8,84.3,72.6,76.9,82.9,76.9L82.9,76.9z M82.3,79c-4.5,0-5.8,6.2-5.8,14.2c0,7.8,2.1,14.2,6.2,14.2c4.7,0,6-6.2,6-14.2
		C88.7,85.4,86.6,79,82.3,79L82.3,79z"/>
	<path class="st1" d="M159.1,93.4c0-8.4,5.4-16.5,15.9-16.5c8.7,0,12.8,6.4,12.8,14.8h-19.2c-0.2,7.6,3.5,13.2,10.9,13.2
		c3.3,0,4.9-0.8,7-2.3l0.8,1c-2.1,2.9-6.6,5.8-12.4,5.8C165.7,109.5,159.1,102.9,159.1,93.4L159.1,93.4z M168.6,89.5l9.7-0.2
		c0-4.1-0.6-10.3-4.1-10.3C170.7,79,168.8,84.7,168.6,89.5L168.6,89.5z"/>
	<path class="st1" d="M212.3,78.6c-2.5-1-5.8-1.6-9.5-1.6c-7.6,0-12.4,4.5-12.4,9.9c0,5.4,3.5,7.6,8.4,9.3c5.1,1.9,6.6,3.3,6.6,5.8
		c0,2.5-1.9,4.7-5.2,4.7c-3.9,0-6.8-2.3-9.1-8.4l-1.4,0.4l0.2,9.1c2.5,1,7,1.9,10.9,1.9c8,0,13.2-4.1,13.2-10.5
		c0-4.3-2.3-6.8-7.6-8.9c-5.8-2.3-7.8-3.7-7.8-6.4c0-2.7,1.9-4.5,4.3-4.5c3.7,0,6.2,2.3,8,7.8l1.4-0.4L212.3,78.6L212.3,78.6z"/>
	<path class="st1" d="M125.1,77.7c-3.5-2.1-9.7-1-13,6.4l0.2-7.2l-13.8,2.7v1.2L100,81c1.9,0.2,2.7,1.2,2.9,3.9
		c0.4,4.9,0.2,13.6,0,17.9c-0.2,2.5-1,3.7-2.9,3.9l-1.4,0.2v1.6h19.2V107l-2.5-0.2c-2.1-0.2-2.7-1.4-2.9-3.9
		c-0.4-3.9-0.4-11.7-0.2-16.7c1-1.4,5.6-2.7,9.7,0L125.1,77.7L125.1,77.7z"/>
</g>
</svg>
