<?xml version="1.0" encoding="utf-8"?>
<!-- Generator: Adobe Illustrator 25.0.0, SVG Export Plug-In . SVG Version: 6.00 Build 0)  -->
<svg version="1.1" id="Layer_1" xmlns="http://www.w3.org/2000/svg" xmlns:xlink="http://www.w3.org/1999/xlink" x="0px" y="0px"
	 viewBox="0 0 198 174" style="enable-background:new 0 0 198 174;" xml:space="preserve">
<style type="text/css">
	.st0{fill-rule:evenodd;clip-rule:evenodd;fill:#A09F9F;}
</style>
<path class="st0" d="M124.2,59c15.4,0,28,12.6,28,28c0,5.6-1.7,11.1-4.8,15.7l8,10.6h-17.1l-1.1-1.4c-4,2.1-8.4,3.2-12.9,3.2
	c-14.2,0-26-10.7-27.8-24.4C94.6,104.3,82.8,115,68.6,115c-15.4,0-28-12.6-28-28c0-15.4,12.6-28,28-28c12.3,0,22.9,8.1,26.6,19.2
	H77.8c-2.3-2.4-5.6-3.9-9.2-3.9c-7,0-12.7,5.7-12.7,12.7c0,7,5.7,12.7,12.7,12.7c3.8,0,7.3-1.7,9.6-4.4h-7.9V82.8h25.9
	c0,0.2,0.1,0.4,0.1,0.6C98.2,69.6,110,59,124.2,59L124.2,59z M118.8,87.8H136l0.8,1.1c0.1-0.6,0.1-1.2,0.1-1.8
	c0-7-5.7-12.7-12.7-12.7c-7,0-12.7,5.7-12.7,12.7c0,7,5.7,12.7,12.7,12.7c1.2,0,2.3-0.2,3.4-0.5L118.8,87.8z"/>
</svg>
