<?xml version="1.0" encoding="utf-8"?>
<!-- Generator: Adobe Illustrator 25.0.0, SVG Export Plug-In . SVG Version: 6.00 Build 0)  -->
<svg version="1.1" id="Layer_1" xmlns="http://www.w3.org/2000/svg" xmlns:xlink="http://www.w3.org/1999/xlink" x="0px" y="0px"
	 viewBox="0 0 358.3 174" style="enable-background:new 0 0 358.3 174;" xml:space="preserve">
<style type="text/css">
	.st0{fill-rule:evenodd;clip-rule:evenodd;fill:#A09F9F;}
</style>
<path class="st0" d="M305.1,96.2v1.7h2.2v8.3H293V98h1.9V74.5h-1.8v-7.7h12v23.1l6-4.2h-2.7v-8.2H324v8.2h-3.3l-3.3,2.6l4.3,9.7h2.4
	v8.2h-15.8v-8.3h2.5l-1.8-4.3L305.1,96.2L305.1,96.2z M283.4,94.9h9.4c-2.4,8.1-5.5,12.3-15.7,12.3c-4.8,0-8.5-1.5-11.4-4.1
	c-2.7-2.4-4.3-6.6-4.3-11.2s2.1-8.6,4.3-10.8c2.5-2.5,6.7-4.1,11.4-4.1c5.3,0,9.9,1.3,12,3.5c2.1,2.4,3.8,6.7,3.8,11.3v1.5h-19.1
	c0,2.1,0.9,4.1,1,4.6c0.3,1.2,2.4,2.1,4.3,2.1c0.9,0,2-0.4,2.9-1C282.6,98.6,284.2,96.6,283.4,94.9L283.4,94.9z M274.1,88.8h7.2
	v-0.5c0-1.5-0.7-2.8-1-3.1c-0.2-0.4-1.4-1-2.4-1c-1.4,0-2.4,0.5-2.8,1c0,0.1-1,1.5-1,3.1V88.8z M260.7,94.9
	c-2.5,8.1-5.6,12.3-15.8,12.3c-4.8,0-8.6-1.5-11.5-4.1c-2.7-2.4-4.3-6.6-4.3-11.2s2-8.5,4.3-10.8c2.6-2.5,6.7-4.1,11.5-4.1
	c5.3,0,9.7,1.2,11.9,3.5c2.3,2.5,3.8,6.7,3.8,11.3v1.5h-19.1c0,2.1,0.8,4,1,4.6c0.4,1.2,2.4,2.1,4.2,2.1c1,0,2.2-0.6,2.9-1
	c0.5-0.3,2.2-2.6,1.5-4.2L260.7,94.9L260.7,94.9z M241.8,88.8h7.1v-0.5c0-1.5-0.6-2.7-0.9-3.1c-0.4-0.5-1.4-1-2.4-1
	c-1.4,0-2.4,0.4-2.9,1c-0.1,0.1-0.9,1.5-0.9,3.1L241.8,88.8L241.8,88.8L241.8,88.8z M190.2,106.2l-8.6-20.5h-2v-8.2h17.1v8.2H195
	l2.4,8.7l3-8.7h-2.2v-8.2h18.9v8.2l-1.9-0.1l2.8,8.8l2.9-8.7h-2.5v-8.2h12.1v8.2h-2.4l-8.1,20.5h-9.6L205,91.9l-5.3,14.3H190.2z
	 M151.8,85.7h-1.3l-8.1,20.5h-9.5l-5.3-14.3l-5.2,14.3h-9.6l-8.6-20.5h-1.9v-8.2h17.2v8.2h-1.9l2.4,8.7l3-8.7h-2.3v-8.2h19.3v8.2
	h-2.2l2.8,8.7l2.9-8.7h-2.2v-8.2h11.8V82c0.5-1,1.1-1.8,1.8-2.5c1.8-1.6,4.3-2.5,7.2-2.5c1.9,0,3.6,0.2,4.8,0.5c1.1,0.3,2.9,1,3.8,2
	v-2h8.1v9.2h-8.1c-0.5-1-1.7-2.3-2.4-2.6c-0.7-0.3-1.9-1-3.3-1c-1,0-1.7,0.2-1.9,0.5c-0.2,0.3-0.9,1-0.9,1.5c0,0.5,0.7,0.8,0.9,1
	c0.2,0.3,1.7,0.4,3.4,1l4.3,1.5c2.6,0.9,5.4,1.7,6.7,3.1c1.1,1.3,2.4,3.6,2.4,5.6c0,3.1-1,5.7-2.9,7.2c-1.9,1.5-3.8,2.2-7.1,2.2
	c-1.4,0-3.4,0-4.8-0.6c-1-0.4-2.9-1-4.3-2.1v2.1h-8.6V97h8.6c0.5,1,1.1,2.4,2.4,3.1c0.7,0.4,1.9,1,3.4,1c0.9,0,1.7-0.4,1.9-0.5
	c0.5-0.2,1-1,1-1.5c0-1-1.7-1.6-3.8-2.1c-0.3-0.1-0.9-0.5-1-0.5l-4.8-1c-1.9-0.4-4.5-2.3-5.7-3.6c-1.1-1.3-1.9-3.1-1.9-5.7
	C151.7,85.9,151.7,86,151.8,85.7L151.8,85.7z M103.2,94.9c-2.6,8.1-6,12.4-16.1,12.4c-4.8,0-8.7-1.6-11.5-4.1
	c-2.8-2.5-4.2-6.6-4.2-11.2s1.6-8.2,4.2-10.8c2.9-2.9,6.7-4.1,11.5-4.1c5.3,0,9.4,0.9,11.9,3.5c2.6,2.8,3.8,6.7,3.8,11.3v1.5H83.8
	c0,2.1,0.5,3.6,1,4.6c0.8,1.5,2.4,2.1,4.3,2.1c0.9,0,2.1-0.6,2.8-1c0.5-0.3,1.9-3,1.4-4.2L103.2,94.9L103.2,94.9L103.2,94.9z
	 M84,88.8h7.2v-0.5c0-1.5-0.3-2.4-1-3.1c-0.7-0.8-1.4-1-2.4-1c-1.4,0-2,0.1-2.9,1c-0.4,0.4-0.9,1.5-0.9,3.1V88.8z M44.3,81.6V98h3.3
	v8.2H34.2V98h2.4V74.5h-2.4v-7.7H50l12.4,23.1V74.5h-3.3v-7.7h13.4v7.7H70v31.7H57.2L44.3,81.6z"/>
</svg>
