<?xml version="1.0" encoding="utf-8"?>
<!-- Generator: Adobe Illustrator 21.0.2, SVG Export Plug-In . SVG Version: 6.00 Build 0)  -->
<svg version="1.1" id="Layer_1" xmlns="http://www.w3.org/2000/svg" xmlns:xlink="http://www.w3.org/1999/xlink" x="0px" y="0px"
	 viewBox="0 0 198 174" style="enable-background:new 0 0 198 174;" xml:space="preserve">
<style type="text/css">
	.st0{fill:#FFFFFF;}
	.st1{fill-rule:evenodd;clip-rule:evenodd;fill:#A09F9F;}
	.st2{fill-rule:evenodd;clip-rule:evenodd;fill:#FFFFFF;}
	.st3{fill:#A09F9F;}
	.st4{fill:none;}
</style>
<g>
	<path class="st3" d="M130.1,91c-4.2-3.2-11.6-4.2-11.6-4.2s-4.2-0.7-3.6-3.2c0.6-2.4,7.3-0.7,7.3-0.7l8.9,2.9l3.4-11l-14.5-4.1
		l-8.8-0.4L110.9,59H95.3l0,29c0,0,1.5,13.5-8,13.1s-8.8-6.9-8.8-12.1c0-5.2-0.1-30.1-0.1-30.1H62.8v32.9c0,0-1.6,22.9,24.2,22.9
		c0,0,9.7,0,14.1-3.5c0,0,19.6,8.9,30.8-0.9c0,0,3.4-3.9,3.4-8.9S134.3,94.2,130.1,91z M109.3,96.8c2.3,0.7,10,3.1,11.5,3.7
		c1,0.4,1.4,1.3,1.2,2.4c-0.3,1.6-2.7,1.1-3.9,0.9c-2.2-0.5-10.3-2.7-10.3-2.7L109.3,96.8z"/>
	<rect x="105" y="66.2" class="st0" width="5.9" height="5.4"/>
	<path class="st3" d="M104.3,65.1v7.1h28.5v-7.1H104.3z M109.9,67c-0.2,1-0.5,2-0.7,3.1c-0.1,0.4-0.4,0.1-0.6,0.2
		c-0.2,0-0.3,0-0.4-0.2c-0.1-0.4-0.2-0.9-0.3-1.3c0-0.1,0-0.2-0.1-0.2c-0.1,0.5-0.2,1-0.3,1.5c0,0.2-0.2,0.3-0.3,0.3
		c-0.2-0.1-0.6,0.2-0.7-0.2c-0.2-1-0.5-2-0.7-3c-0.1-0.2,0-0.3,0.2-0.3c0.7,0,0.7,0,0.8,0.6c0.1,0.3,0.1,0.6,0.2,1
		c0.1-0.4,0.2-0.8,0.2-1.3c0-0.4,0.3-0.3,0.6-0.3c0.2,0,0.5,0,0.5,0.3c0,0.4,0.2,0.8,0.3,1.3c0.1-0.4,0.1-0.8,0.2-1.2
		c0-0.1,0-0.3,0.1-0.4c0.3,0,0.6,0,0.8,0C110,66.9,109.9,67,109.9,67z M113.9,70.3c-0.7,0-1.4,0-2.2,0c-0.2,0-0.3-0.1-0.3-0.3
		c0-0.5,0-1,0-1.4c0-0.5,0-1,0-1.4c0-0.2,0.1-0.3,0.3-0.3c0.7,0,1.4,0,2.1,0c0.4,0,0.2,0.3,0.3,0.4c0,0.2,0.1,0.4-0.2,0.4
		c-0.4,0-0.8,0-1.2,0c-0.2,0-0.2,0.1-0.2,0.2c0,0.2,0.1,0.2,0.2,0.2c0.1,0,0.2,0,0.3,0c0.5,0,0.6,0.2,0.5,0.7c0,0.1-0.1,0.2-0.2,0.2
		c-0.2,0-0.3,0-0.5,0c-0.2,0-0.3,0.1-0.3,0.3c0,0.2,0.1,0.3,0.3,0.3c0.4,0,0.8,0,1.2,0c0.4,0,0.2,0.3,0.2,0.4
		C114.2,70.1,114.2,70.3,113.9,70.3z M118.2,70.3c-0.8,0-1.5,0-2.3,0c-0.2,0-0.2-0.1-0.2-0.3c0-0.5,0-1,0-1.4c0-0.5,0-0.9,0-1.4
		c0-0.2,0-0.3,0.3-0.3c0.7,0,1.4,0,2.1,0c0.4,0,0.3,0.3,0.3,0.5c0,0.2,0.1,0.4-0.3,0.4c-0.4,0-0.8,0-1.1,0c-0.1,0-0.2,0-0.2,0.2
		c0,0.2,0.1,0.2,0.2,0.2c0.1,0,0.2,0,0.3,0c0.5,0,0.6,0.2,0.5,0.7c0,0.1-0.1,0.1-0.2,0.1c-0.2,0-0.3,0-0.5,0c-0.2,0-0.3,0.1-0.3,0.3
		c0,0.2,0.1,0.3,0.3,0.3c0.4,0,0.8,0,1.2,0c0.3,0,0.3,0.2,0.2,0.4C118.4,70,118.6,70.3,118.2,70.3z M122.1,70.3
		c-0.2,0-0.2-0.1-0.2-0.2c-0.2-0.4-0.4-0.8-0.6-1.2c-0.4,0.2-0.4,0.6-0.4,1c0,0.3-0.1,0.5-0.4,0.4c-0.2-0.1-0.6,0.2-0.6-0.3
		c0-1,0-2,0-2.9c0-0.2,0.1-0.3,0.3-0.3c0.7,0,0.7,0,0.7,0.7c0,0.1,0,0.3,0,0.5c0.2-0.3,0.4-0.5,0.6-0.8c0.2-0.3,0.4-0.5,0.8-0.4
		c0.2,0,0.4,0,0.7,0c-0.3,0.4-0.6,0.7-0.9,1c-0.2,0.2-0.2,0.3-0.1,0.5c0.3,0.6,0.7,1.2,1,2C122.8,70.3,122.5,70.3,122.1,70.3z
		 M126.8,70.3c-0.7,0-1.4,0-2,0c-0.2,0-0.2-0.1-0.2-0.3c0-1,0-2,0-3c0-0.2,0.1-0.3,0.2-0.2c0.1,0,0.3,0,0.4,0c0.3,0,0.4,0.1,0.4,0.4
		c0,0.3,0,0.6,0,0.9c0,0.3,0,0.6,0,0.9c0,0.3,0.1,0.5,0.4,0.4c0.3,0,0.6,0,0.9,0c0.4,0,0.2,0.3,0.2,0.5
		C127.1,70.1,127.2,70.3,126.8,70.3z M130.4,68.2c-0.4,0.5-0.6,1.1-0.5,1.7c0,0.3-0.1,0.4-0.4,0.4c-0.1,0-0.3,0-0.4,0
		c-0.1,0-0.2,0-0.2-0.2c0.2-1.2-0.7-2.1-1.2-3.1c0-0.1-0.1-0.1-0.1-0.2c0,0,0.1,0,0.1,0c1.1-0.1,1.1-0.1,1.7,1.3
		c0.2-0.3,0.3-0.6,0.5-1c0.1-0.3,0.3-0.4,0.6-0.4c0.2,0,0.4,0,0.7,0C130.9,67.3,130.6,67.7,130.4,68.2z"/>
</g>
</svg>
